# xmcd
#
# Track frame offsets:
#	150
#	15773
#	31144
#	44434
#	56203
#	69976
#	83173
#	90239
#	104370
#	125875
#	138600
#	153119
#	166712
#
# Disc length: 2357 seconds
#
# Revision: 1
# Processed by: cddbd v1.5.1PL0 Copyright (c) Steve Scherf et al.
# Submitted via: EasyCDDAExtractor 7.1.0.1
#
DISCID=9a09330d
DTITLE=Grapevine Canyon Ranch Band - Ride for the Band
DYEAR=2002
DGENRE=Country
TTITLE0=Life, Love and Dreams
TTITLE1=Wish You'd stay away
TTITLE2=Give her to a freind
TTITLE3=Singing the Blues
TTITLE4=I Don't hurt anymore
TTITLE5=Gone Fishing
TTITLE6=Cattle in the cane
TTITLE7=Sod Buster
TTITLE8=I Wonder Where You Are Tonight
TTITLE9=Honkey-Tonk Blues
TTITLE10=Crying Just Like Me
TTITLE11=Rambling Rose
TTITLE12=Put Another Log
EXTD=
EXTT0=
EXTT1=
EXTT2=
EXTT3=
EXTT4=
EXTT5=
EXTT6=
EXTT7=
EXTT8=
EXTT9=
EXTT10=
EXTT11=
EXTT12=
PLAYORDER=
